<svg width="24" height="24" viewBox="0 0 24 24" fill="none" xmlns="http://www.w3.org/2000/svg">
<path fill-rule="evenodd" clip-rule="evenodd" d="M20.3336 9.70378C20.4499 9.0506 20.4473 8.37897 20.0439 7.87104C19.4811 7.15885 18.283 7.13264 17.4623 7.25832C16.7946 7.3604 14.5363 8.35677 13.7679 10.7421C15.1294 10.6386 15.8429 10.8402 15.7119 12.3392C15.657 12.9664 15.3402 13.6534 14.9867 14.3121C14.5781 15.0715 13.8123 16.5625 12.8082 15.4877C11.9037 14.5204 11.9716 12.6704 11.7648 11.4384C11.6496 10.7473 11.5278 9.88588 11.3014 9.17494C11.1062 8.56357 10.6587 7.82648 10.1114 7.66673C9.52361 7.49399 8.79686 7.76361 8.37009 8.01503C7.01113 8.81359 5.97545 9.94989 4.79999 10.8873C4.99135 11.2973 5.09571 11.5629 5.4387 11.6126C6.24787 11.7318 7.01903 10.8585 7.55697 11.7671C7.88426 12.3222 7.98649 12.9309 8.19589 13.5295C8.47602 14.3265 8.69202 15.1945 8.92114 16.111C9.30864 17.6636 9.78527 19.9835 11.1272 20.5517C11.8118 20.8425 12.8409 20.4535 13.362 20.1445C14.7733 19.3094 15.873 18.0984 16.8143 16.8664C18.9665 13.9508 20.154 10.6477 20.3336 9.70378Z" fill="white"/>
</svg>
