<svg width="17" height="18" viewBox="0 0 17 18" fill="none" xmlns="http://www.w3.org/2000/svg">
<rect y="0.5" width="2" height="2" rx="1" fill="white"/>
<rect x="5" y="0.5" width="2" height="2" rx="1" fill="white"/>
<rect x="10" y="0.5" width="2" height="2" rx="1" fill="white"/>
<rect x="15" y="0.5" width="2" height="2" rx="1" fill="white"/>
<rect y="5.5" width="2" height="2" rx="1" fill="white"/>
<rect x="5" y="5.5" width="2" height="2" rx="1" fill="white"/>
<rect x="10" y="5.5" width="2" height="2" rx="1" fill="white"/>
<rect x="15" y="5.5" width="2" height="2" rx="1" fill="white"/>
<rect y="10.5" width="2" height="2" rx="1" fill="white"/>
<rect x="5" y="10.5" width="2" height="2" rx="1" fill="white"/>
<rect x="10" y="10.5" width="2" height="2" rx="1" fill="white"/>
<rect x="15" y="10.5" width="2" height="2" rx="1" fill="white"/>
<rect y="15.5" width="2" height="2" rx="1" fill="white"/>
<rect x="5" y="15.5" width="2" height="2" rx="1" fill="white"/>
<rect x="10" y="15.5" width="2" height="2" rx="1" fill="white"/>
<rect x="15" y="15.5" width="2" height="2" rx="1" fill="white"/>
</svg>
