<svg width="17" height="17" viewBox="0 0 17 17" fill="none" xmlns="http://www.w3.org/2000/svg">
<path d="M8.3979 4.59789C6.1832 4.59789 4.39582 6.3853 4.39582 8.60005C4.39582 10.8148 6.1832 12.6022 8.3979 12.6022C10.6126 12.6022 12.4 10.8148 12.4 8.60005C12.4 6.3853 10.6126 4.59789 8.3979 4.59789ZM8.3979 11.2012C6.96566 11.2012 5.79684 10.0323 5.79684 8.60005C5.79684 7.16778 6.96566 5.99894 8.3979 5.99894C9.83014 5.99894 10.999 7.16778 10.999 8.60005C10.999 10.0323 9.83014 11.2012 8.3979 11.2012ZM12.5639 3.50125C12.0468 3.50125 11.6292 3.91884 11.6292 4.43594C11.6292 4.95303 12.0468 5.37062 12.5639 5.37062C13.081 5.37062 13.4986 4.95499 13.4986 4.43594C13.4987 4.31315 13.4746 4.19154 13.4277 4.07807C13.3808 3.9646 13.312 3.8615 13.2251 3.77467C13.1383 3.68785 13.0352 3.61901 12.9218 3.57209C12.8083 3.52517 12.6867 3.5011 12.5639 3.50125V3.50125ZM16.1991 8.60005C16.1991 7.52292 16.2089 6.45555 16.1484 5.38037C16.0879 4.13153 15.803 3.02318 14.8898 2.10996C13.9747 1.1948 12.8683 0.911854 11.6195 0.851363C10.5424 0.790873 9.47501 0.800629 8.39985 0.800629C7.32274 0.800629 6.25539 0.790873 5.18024 0.851363C3.93142 0.911854 2.82309 1.19675 1.90989 2.10996C0.994738 3.02513 0.711802 4.13153 0.651312 5.38037C0.590822 6.4575 0.600579 7.52487 0.600579 8.60005C0.600579 9.67523 0.590822 10.7445 0.651312 11.8197C0.711802 13.0686 0.996689 14.1769 1.90989 15.0901C2.82504 16.0053 3.93142 16.2882 5.18024 16.3487C6.25735 16.4092 7.3247 16.3995 8.39985 16.3995C9.47696 16.3995 10.5443 16.4092 11.6195 16.3487C12.8683 16.2882 13.9766 16.0034 14.8898 15.0901C15.805 14.175 16.0879 13.0686 16.1484 11.8197C16.2108 10.7445 16.1991 9.67718 16.1991 8.60005V8.60005ZM14.482 13.2013C14.3396 13.5564 14.1678 13.8218 13.8927 14.095C13.6176 14.3701 13.3542 14.5418 12.999 14.6843C11.9727 15.0921 9.5355 15.0004 8.3979 15.0004C7.2603 15.0004 4.8212 15.0921 3.79483 14.6862C3.43969 14.5438 3.17432 14.372 2.90114 14.0969C2.62601 13.8218 2.4543 13.5583 2.31185 13.2032C1.90599 12.1749 1.9977 9.73767 1.9977 8.60005C1.9977 7.46243 1.90599 5.02328 2.31185 3.99689C2.4543 3.64175 2.62601 3.37637 2.90114 3.10319C3.17627 2.83 3.43969 2.65633 3.79483 2.51389C4.8212 2.10801 7.2603 2.19972 8.3979 2.19972C9.5355 2.19972 11.9746 2.10801 13.001 2.51389C13.3561 2.65633 13.6215 2.82805 13.8947 3.10319C14.1698 3.37832 14.3415 3.64175 14.484 3.99689C14.8898 5.02328 14.7981 7.46243 14.7981 8.60005C14.7981 9.73767 14.8898 12.1749 14.482 13.2013Z" fill="white"/>
</svg>
