<svg width="24" height="24" viewBox="0 0 24 24" fill="none" xmlns="http://www.w3.org/2000/svg">
<path d="M11.3979 8.59765C9.1832 8.59765 7.39583 10.3851 7.39583 12.5998C7.39583 14.8146 9.1832 16.602 11.3979 16.602C13.6126 16.602 15.4 14.8146 15.4 12.5998C15.4 10.3851 13.6126 8.59765 11.3979 8.59765ZM11.3979 15.2009C9.96567 15.2009 8.79685 14.0321 8.79685 12.5998C8.79685 11.1675 9.96567 9.9987 11.3979 9.9987C12.8302 9.9987 13.999 11.1675 13.999 12.5998C13.999 14.0321 12.8302 15.2009 11.3979 15.2009ZM15.5639 7.50101C15.0468 7.50101 14.6292 7.91859 14.6292 8.43569C14.6292 8.95279 15.0468 9.37037 15.5639 9.37037C16.081 9.37037 16.4986 8.95474 16.4986 8.43569C16.4987 8.3129 16.4746 8.19129 16.4277 8.07782C16.3808 7.96435 16.312 7.86125 16.2251 7.77443C16.1383 7.6876 16.0352 7.61876 15.9218 7.57184C15.8083 7.52493 15.6867 7.50086 15.5639 7.50101ZM19.1991 12.5998C19.1991 11.5227 19.2089 10.4553 19.1484 9.38013C19.0879 8.13129 18.803 7.02294 17.8898 6.10972C16.9747 5.19455 15.8683 4.91161 14.6195 4.85112C13.5424 4.79063 12.475 4.80039 11.3999 4.80039C10.3228 4.80039 9.2554 4.79063 8.18025 4.85112C6.93143 4.91161 5.8231 5.1965 4.9099 6.10972C3.99475 7.02489 3.71181 8.13129 3.65132 9.38013C3.59083 10.4573 3.60059 11.5246 3.60059 12.5998C3.60059 13.675 3.59083 14.7443 3.65132 15.8195C3.71181 17.0683 3.9967 18.1767 4.9099 19.0899C5.82505 20.0051 6.93143 20.288 8.18025 20.3485C9.25735 20.409 10.3247 20.3992 11.3999 20.3992C12.477 20.3992 13.5443 20.409 14.6195 20.3485C15.8683 20.288 16.9766 20.0031 17.8898 19.0899C18.805 18.1747 19.0879 17.0683 19.1484 15.8195C19.2108 14.7443 19.1991 13.6769 19.1991 12.5998ZM17.482 17.201C17.3396 17.5562 17.1679 17.8215 16.8927 18.0947C16.6176 18.3699 16.3542 18.5416 15.999 18.684C14.9727 19.0918 12.5355 19.0001 11.3979 19.0001C10.2603 19.0001 7.82121 19.0918 6.79484 18.686C6.4397 18.5435 6.17433 18.3718 5.90115 18.0967C5.62602 17.8215 5.4543 17.5581 5.31186 17.203C4.90599 16.1746 4.9977 13.7374 4.9977 12.5998C4.9977 11.4622 4.90599 9.02304 5.31186 7.99664C5.4543 7.6415 5.62602 7.37613 5.90115 7.10294C6.17628 6.82976 6.4397 6.65609 6.79484 6.51364C7.82121 6.10777 10.2603 6.19948 11.3979 6.19948C12.5355 6.19948 14.9746 6.10777 16.001 6.51364C16.3561 6.65609 16.6215 6.82781 16.8947 7.10294C17.1698 7.37808 17.3415 7.6415 17.484 7.99664C17.8898 9.02304 17.7981 11.4622 17.7981 12.5998C17.7981 13.7374 17.8898 16.1746 17.482 17.201Z" fill="white"/>
</svg>
