<svg width="17" height="17" viewBox="0 0 17 17" fill="none" xmlns="http://www.w3.org/2000/svg">
<path d="M8.3979 4.59765C6.1832 4.59765 4.39582 6.38506 4.39582 8.5998C4.39582 10.8146 6.1832 12.602 8.3979 12.602C10.6126 12.602 12.4 10.8146 12.4 8.5998C12.4 6.38506 10.6126 4.59765 8.3979 4.59765ZM8.3979 11.2009C6.96566 11.2009 5.79684 10.0321 5.79684 8.5998C5.79684 7.16754 6.96566 5.9987 8.3979 5.9987C9.83014 5.9987 10.999 7.16754 10.999 8.5998C10.999 10.0321 9.83014 11.2009 8.3979 11.2009ZM12.5639 3.50101C12.0468 3.50101 11.6292 3.91859 11.6292 4.43569C11.6292 4.95279 12.0468 5.37037 12.5639 5.37037C13.081 5.37037 13.4986 4.95474 13.4986 4.43569C13.4987 4.3129 13.4746 4.19129 13.4277 4.07782C13.3808 3.96435 13.312 3.86125 13.2251 3.77443C13.1383 3.6876 13.0352 3.61876 12.9218 3.57184C12.8083 3.52493 12.6867 3.50086 12.5639 3.50101ZM16.1991 8.5998C16.1991 7.52268 16.2089 6.45531 16.1484 5.38013C16.0879 4.13129 15.803 3.02294 14.8898 2.10972C13.9747 1.19455 12.8683 0.91161 11.6195 0.851119C10.5424 0.790628 9.47501 0.800385 8.39985 0.800385C7.32274 0.800385 6.25539 0.790628 5.18024 0.851119C3.93142 0.91161 2.82309 1.1965 1.90989 2.10972C0.994738 3.02489 0.711802 4.13129 0.651312 5.38013C0.590822 6.45726 0.600579 7.52463 0.600579 8.5998C0.600579 9.67498 0.590822 10.7443 0.651312 11.8195C0.711802 13.0683 0.996689 14.1767 1.90989 15.0899C2.82504 16.0051 3.93142 16.288 5.18024 16.3485C6.25735 16.409 7.3247 16.3992 8.39985 16.3992C9.47696 16.3992 10.5443 16.409 11.6195 16.3485C12.8683 16.288 13.9766 16.0031 14.8898 15.0899C15.805 14.1747 16.0879 13.0683 16.1484 11.8195C16.2108 10.7443 16.1991 9.67693 16.1991 8.5998ZM14.482 13.201C14.3396 13.5562 14.1678 13.8215 13.8927 14.0947C13.6176 14.3699 13.3542 14.5416 12.999 14.684C11.9727 15.0918 9.5355 15.0001 8.3979 15.0001C7.2603 15.0001 4.8212 15.0918 3.79483 14.686C3.43969 14.5435 3.17432 14.3718 2.90114 14.0967C2.62601 13.8215 2.4543 13.5581 2.31185 13.203C1.90599 12.1746 1.9977 9.73742 1.9977 8.5998C1.9977 7.46219 1.90599 5.02304 2.31185 3.99664C2.4543 3.6415 2.62601 3.37613 2.90114 3.10294C3.17627 2.82976 3.43969 2.65609 3.79483 2.51364C4.8212 2.10777 7.2603 2.19948 8.3979 2.19948C9.5355 2.19948 11.9746 2.10777 13.001 2.51364C13.3561 2.65609 13.6215 2.82781 13.8947 3.10294C14.1698 3.37808 14.3415 3.6415 14.484 3.99664C14.8898 5.02304 14.7981 7.46219 14.7981 8.5998C14.7981 9.73742 14.8898 12.1746 14.482 13.201Z" fill="black"/>
</svg>
