<svg width="17" height="14" viewBox="0 0 17 14" fill="none" xmlns="http://www.w3.org/2000/svg">
<path fill-rule="evenodd" clip-rule="evenodd" d="M16.3336 2.70378C16.4499 2.0506 16.4473 1.37897 16.0439 0.871039C15.4811 0.158848 14.283 0.132641 13.4623 0.258324C12.7946 0.3604 10.5363 1.35677 9.76789 3.74211C11.1293 3.63863 11.8429 3.84023 11.7119 5.33918C11.657 5.96635 11.3402 6.65343 10.9867 7.31211C10.5781 8.07146 9.81235 9.56251 8.80818 8.48772C7.90369 7.52042 7.9716 5.67042 7.7648 4.43844C7.64962 3.74726 7.52784 2.88588 7.30138 2.17494C7.10622 1.56357 6.65871 0.826475 6.11141 0.666731C5.5236 0.493988 4.79685 0.763607 4.37009 1.01503C3.01113 1.81359 1.97544 2.94989 0.799987 3.88729C0.991346 4.29726 1.09571 4.56288 1.4387 4.61264C2.24787 4.73182 3.01903 3.85854 3.55697 4.76713C3.88426 5.32223 3.98649 5.93094 4.19589 6.52946C4.47602 7.32651 4.69202 8.19449 4.92113 9.11104C5.30864 10.6636 5.78527 12.9835 7.12718 13.5517C7.81181 13.8425 8.84094 13.4535 9.36198 13.1445C10.7733 12.3094 11.873 11.0984 12.8143 9.86645C14.9665 6.95076 16.154 3.64773 16.3336 2.70378Z" fill="black"/>
</svg>
