<svg width="17" height="14" viewBox="0 0 17 14" fill="none" xmlns="http://www.w3.org/2000/svg">
<path fill-rule="evenodd" clip-rule="evenodd" d="M16.3336 2.70353C16.4499 2.05036 16.4473 1.37873 16.0439 0.870795C15.4811 0.158604 14.283 0.132396 13.4623 0.25808C12.7946 0.360156 10.5363 1.35653 9.76789 3.74186C11.1293 3.63838 11.8429 3.83999 11.7119 5.33894C11.657 5.96611 11.3402 6.65318 10.9867 7.31186C10.5781 8.07122 9.81235 9.56226 8.80818 8.48748C7.90369 7.52018 7.9716 5.67018 7.7648 4.4382C7.64962 3.74701 7.52784 2.88563 7.30138 2.17469C7.10622 1.56333 6.65871 0.826231 6.11141 0.666487C5.52361 0.493744 4.79685 0.763363 4.37009 1.01478C3.01113 1.81334 1.97544 2.94965 0.799987 3.88705C0.991346 4.29702 1.09571 4.56263 1.4387 4.61239C2.24787 4.73158 3.01903 3.85829 3.55697 4.76689C3.88426 5.32199 3.98649 5.9307 4.19589 6.52922C4.47602 7.32627 4.69202 8.19425 4.92113 9.1108C5.30864 10.6634 5.78527 12.9832 7.12718 13.5515C7.81181 13.8422 8.84094 13.4533 9.36198 13.1443C10.7733 12.3091 11.873 11.0982 12.8143 9.8662C14.9665 6.95052 16.154 3.64748 16.3336 2.70353Z" fill="white"/>
</svg>
